<svg xmlns="http://www.w3.org/2000/svg" xmlns:xlink="http://www.w3.org/1999/xlink" width="1171pt" height="453pt" viewBox="0.00 0.00 1170.96 453.00">
<g id="graph0" class="graph" transform="scale(1 1) rotate(0) translate(4 449)">
<title>G</title>
<polygon fill="white" stroke="none" points="-4,4 -4,-449 1166.96,-449 1166.96,4 -4,4"/>
<g id="clust1" class="cluster">
<title>cluster_module.alb</title>
<polygon fill="none" stroke="black" points="707.85,-147 707.85,-278 1154.96,-278 1154.96,-147 707.85,-147"/>
<text text-anchor="middle" x="931.4" y="-261.4" font-family="sans-serif" font-size="14.00">module.alb</text>
</g>
<g id="clust2" class="cluster">
<title>cluster_module.ec2</title>
<polygon fill="none" stroke="black" points="421.06,-8 421.06,-139 856.87,-139 856.87,-8 421.06,-8"/>
<text text-anchor="middle" x="638.97" y="-122.4" font-family="sans-serif" font-size="14.00">module.ec2</text>
</g>
<g id="clust3" class="cluster">
<title>cluster_module.sg</title>
<polygon fill="none" stroke="black" points="462.44,-171 462.44,-248 623.14,-248 623.14,-171 462.44,-171"/>
<text text-anchor="middle" x="542.79" y="-231.4" font-family="sans-serif" font-size="14.00">module.sg</text>
</g>
<g id="clust4" class="cluster">
<title>cluster_module.vpc</title>
<polygon fill="none" stroke="black" points="8,-286 8,-437 895.75,-437 895.75,-286 8,-286"/>
<text text-anchor="middle" x="451.87" y="-420.4" font-family="sans-serif" font-size="14.00">module.vpc</text>
</g>
<!-- module.alb.aws_lb.alb -->
<g id="node1" class="node">
<title>module.alb.aws_lb.alb</title>
<polygon fill="none" stroke="black" points="828.27,-245 752.01,-245 752.01,-209 828.27,-209 828.27,-245"/>
<text text-anchor="middle" x="790.14" y="-222.8" font-family="sans-serif" font-size="14.00">aws_lb.alb</text>
</g>
<!-- module.sg.aws_security_group.sg -->
<g id="node8" class="node">
<title>module.sg.aws_security_group.sg</title>
<polygon fill="none" stroke="black" points="615.14,-215 470.44,-215 470.44,-179 615.14,-179 615.14,-215"/>
<text text-anchor="middle" x="542.79" y="-192.8" font-family="sans-serif" font-size="14.00">aws_security_group.sg</text>
</g>
<!-- module.alb.aws_lb.alb&#45;&gt;module.sg.aws_security_group.sg -->
<g id="edge1" class="edge">
<title>module.alb.aws_lb.alb-&gt;module.sg.aws_security_group.sg</title>
<path fill="none" stroke="black" d="M751.61,-222.41C718.46,-218.36 668.95,-212.3 626.57,-207.12"/>
<polygon fill="black" stroke="black" points="627.25,-203.68 616.89,-205.94 626.4,-210.63 627.25,-203.68"/>
</g>
<!-- module.vpc.aws_subnet.my_subnets -->
<g id="node13" class="node">
<title>module.vpc.aws_subnet.my_subnets</title>
<polygon fill="none" stroke="black" points="618.65,-330 466.94,-330 466.94,-294 618.65,-294 618.65,-330"/>
<text text-anchor="middle" x="542.79" y="-307.8" font-family="sans-serif" font-size="14.00">aws_subnet.my_subnets</text>
</g>
<!-- module.alb.aws_lb.alb&#45;&gt;module.vpc.aws_subnet.my_subnets -->
<g id="edge2" class="edge">
<title>module.alb.aws_lb.alb-&gt;module.vpc.aws_subnet.my_subnets</title>
<path fill="none" stroke="black" d="M751.52,-243.25C725.18,-254.32 689.03,-268.92 656.53,-280 646.06,-283.57 634.95,-287.06 623.95,-290.36"/>
<polygon fill="black" stroke="black" points="623.06,-286.97 614.46,-293.15 625.04,-293.68 623.06,-286.97"/>
</g>
<!-- module.alb.aws_lb_listener.Listener -->
<g id="node2" class="node">
<title>module.alb.aws_lb_listener.Listener</title>
<polygon fill="none" stroke="black" points="1111.97,-245 958.73,-245 958.73,-209 1111.97,-209 1111.97,-245"/>
<text text-anchor="middle" x="1035.35" y="-222.8" font-family="sans-serif" font-size="14.00">aws_lb_listener.Listener</text>
</g>
<!-- module.alb.aws_lb_listener.Listener&#45;&gt;module.alb.aws_lb.alb -->
<g id="edge3" class="edge">
<title>module.alb.aws_lb_listener.Listener-&gt;module.alb.aws_lb.alb</title>
<path fill="none" stroke="black" d="M958.4,-227C919.75,-227 873.9,-227 839.99,-227"/>
<polygon fill="black" stroke="black" points="840.04,-223.5 830.04,-227 840.04,-230.5 840.04,-223.5"/>
</g>
<!-- module.alb.aws_lb_target_group.tg -->
<g id="node3" class="node">
<title>module.alb.aws_lb_target_group.tg</title>
<polygon fill="none" stroke="black" points="864.43,-191 715.85,-191 715.85,-155 864.43,-155 864.43,-191"/>
<text text-anchor="middle" x="790.14" y="-168.8" font-family="sans-serif" font-size="14.00">aws_lb_target_group.tg</text>
</g>
<!-- module.alb.aws_lb_listener.Listener&#45;&gt;module.alb.aws_lb_target_group.tg -->
<g id="edge4" class="edge">
<title>module.alb.aws_lb_listener.Listener-&gt;module.alb.aws_lb_target_group.tg</title>
<path fill="none" stroke="black" d="M958.4,-210.14C932.18,-204.32 902.66,-197.76 875.79,-191.79"/>
<polygon fill="black" stroke="black" points="876.85,-188.45 866.33,-189.69 875.33,-195.28 876.85,-188.45"/>
</g>
<!-- module.vpc.aws_vpc.my_vpc -->
<g id="node14" class="node">
<title>module.vpc.aws_vpc.my_vpc</title>
<polygon fill="none" stroke="black" points="129.59,-330 16,-330 16,-294 129.59,-294 129.59,-330"/>
<text text-anchor="middle" x="72.79" y="-307.8" font-family="sans-serif" font-size="14.00">aws_vpc.my_vpc</text>
</g>
<!-- module.alb.aws_lb_target_group.tg&#45;&gt;module.vpc.aws_vpc.my_vpc -->
<g id="edge5" class="edge">
<title>module.alb.aws_lb_target_group.tg-&gt;module.vpc.aws_vpc.my_vpc</title>
<path fill="none" stroke="black" d="M715.43,-187.7C707.31,-191 699.48,-195.05 692.53,-200 669.63,-216.31 680.78,-237.78 656.53,-252 609.26,-279.72 220.01,-292.55 165.59,-299 157.77,-299.93 149.58,-300.98 141.46,-302.06"/>
<polygon fill="black" stroke="black" points="140.99,-298.6 131.56,-303.42 141.94,-305.53 140.99,-298.6"/>
</g>
<!-- module.alb.aws_lb_target_group_attachment.tga -->
<g id="node4" class="node">
<title>module.alb.aws_lb_target_group_attachment.tga</title>
<polygon fill="none" stroke="black" points="1146.96,-191 923.75,-191 923.75,-155 1146.96,-155 1146.96,-191"/>
<text text-anchor="middle" x="1035.35" y="-168.8" font-family="sans-serif" font-size="14.00">aws_lb_target_group_attachment.tga</text>
</g>
<!-- module.alb.aws_lb_target_group_attachment.tga&#45;&gt;module.alb.aws_lb_target_group.tg -->
<g id="edge6" class="edge">
<title>module.alb.aws_lb_target_group_attachment.tga-&gt;module.alb.aws_lb_target_group.tg</title>
<path fill="none" stroke="black" d="M923.42,-173C907.55,-173 891.43,-173 876.16,-173"/>
<polygon fill="black" stroke="black" points="876.18,-169.5 866.18,-173 876.18,-176.5 876.18,-169.5"/>
</g>
<!-- module.ec2.aws_instance.web -->
<g id="node7" class="node">
<title>module.ec2.aws_instance.web</title>
<polygon fill="none" stroke="black" points="848.87,-106 731.41,-106 731.41,-70 848.87,-70 848.87,-106"/>
<text text-anchor="middle" x="790.14" y="-83.8" font-family="sans-serif" font-size="14.00">aws_instance.web</text>
</g>
<!-- module.alb.aws_lb_target_group_attachment.tga&#45;&gt;module.ec2.aws_instance.web -->
<g id="edge7" class="edge">
<title>module.alb.aws_lb_target_group_attachment.tga-&gt;module.ec2.aws_instance.web</title>
<path fill="none" stroke="black" d="M981.58,-154.56C944.29,-141.52 894.12,-123.99 854.64,-110.19"/>
<polygon fill="black" stroke="black" points="855.83,-106.9 845.24,-106.91 853.52,-113.51 855.83,-106.9"/>
</g>
<!-- module.ec2.data.aws_ami.amazon&#45;2 -->
<g id="node5" class="node">
<title>module.ec2.data.aws_ami.amazon-2</title>
<polygon fill="none" stroke="black" points="618.43,-52 467.16,-52 467.16,-16 618.43,-16 618.43,-52"/>
<text text-anchor="middle" x="542.79" y="-29.8" font-family="sans-serif" font-size="14.00">data.aws_ami.amazon-2</text>
</g>
<!-- module.ec2.data.aws_availability_zones.available -->
<g id="node6" class="node">
<title>module.ec2.data.aws_availability_zones.available</title>
<polygon fill="none" stroke="black" points="656.53,-106 429.06,-106 429.06,-70 656.53,-70 656.53,-106"/>
<text text-anchor="middle" x="542.79" y="-83.8" font-family="sans-serif" font-size="14.00">data.aws_availability_zones.available</text>
</g>
<!-- module.ec2.aws_instance.web&#45;&gt;module.ec2.data.aws_ami.amazon&#45;2 -->
<g id="edge8" class="edge">
<title>module.ec2.aws_instance.web-&gt;module.ec2.data.aws_ami.amazon-2</title>
<path fill="none" stroke="black" d="M731,-75.2C700.82,-68.56 663.37,-60.32 629.91,-52.95"/>
<polygon fill="black" stroke="black" points="630.73,-49.55 620.21,-50.82 629.22,-56.39 630.73,-49.55"/>
</g>
<!-- module.ec2.aws_instance.web&#45;&gt;module.ec2.data.aws_availability_zones.available -->
<g id="edge9" class="edge">
<title>module.ec2.aws_instance.web-&gt;module.ec2.data.aws_availability_zones.available</title>
<path fill="none" stroke="black" d="M731,-88C712.05,-88 690.23,-88 668.34,-88"/>
<polygon fill="black" stroke="black" points="668.41,-84.5 658.41,-88 668.41,-91.5 668.41,-84.5"/>
</g>
<!-- module.ec2.aws_instance.web&#45;&gt;module.sg.aws_security_group.sg -->
<g id="edge10" class="edge">
<title>module.ec2.aws_instance.web-&gt;module.sg.aws_security_group.sg</title>
<path fill="none" stroke="black" d="M747.52,-106.49C705.63,-125.1 640.9,-153.86 595.69,-173.95"/>
<polygon fill="black" stroke="black" points="594.31,-170.73 586.59,-177.99 597.15,-177.13 594.31,-170.73"/>
</g>
<!-- module.ec2.aws_instance.web&#45;&gt;module.vpc.aws_subnet.my_subnets -->
<g id="edge11" class="edge">
<title>module.ec2.aws_instance.web-&gt;module.vpc.aws_subnet.my_subnets</title>
<path fill="none" stroke="black" d="M741.35,-106.47C723.93,-115.25 705.37,-127.32 692.53,-143 660.21,-182.47 689.41,-212.99 656.53,-252 643.45,-267.52 625.31,-279.61 607.4,-288.74"/>
<polygon fill="black" stroke="black" points="606.35,-285.36 598.87,-292.86 609.39,-291.67 606.35,-285.36"/>
</g>
<!-- module.sg.aws_security_group.sg&#45;&gt;module.vpc.aws_vpc.my_vpc -->
<g id="edge12" class="edge">
<title>module.sg.aws_security_group.sg-&gt;module.vpc.aws_vpc.my_vpc</title>
<path fill="none" stroke="black" d="M470.18,-198.35C392.75,-201.87 266.82,-213.66 165.59,-252 143.66,-260.31 121.58,-274.51 104.57,-287.02"/>
<polygon fill="black" stroke="black" points="102.75,-284 96.88,-292.83 106.97,-289.59 102.75,-284"/>
</g>
<!-- module.vpc.data.aws_availability_zones.available -->
<g id="node9" class="node">
<title>module.vpc.data.aws_availability_zones.available</title>
<polygon fill="none" stroke="black" points="393.06,-350 165.59,-350 165.59,-314 393.06,-314 393.06,-350"/>
<text text-anchor="middle" x="279.32" y="-327.8" font-family="sans-serif" font-size="14.00">data.aws_availability_zones.available</text>
</g>
<!-- module.vpc.aws_internet_gateway.igw -->
<g id="node10" class="node">
<title>module.vpc.aws_internet_gateway.igw</title>
<polygon fill="none" stroke="black" points="362.16,-404 196.49,-404 196.49,-368 362.16,-368 362.16,-404"/>
<text text-anchor="middle" x="279.32" y="-381.8" font-family="sans-serif" font-size="14.00">aws_internet_gateway.igw</text>
</g>
<!-- module.vpc.aws_internet_gateway.igw&#45;&gt;module.vpc.aws_vpc.my_vpc -->
<g id="edge13" class="edge">
<title>module.vpc.aws_internet_gateway.igw-&gt;module.vpc.aws_vpc.my_vpc</title>
<path fill="none" stroke="black" d="M196.05,-368.72C185.68,-365.84 175.31,-362.59 165.59,-359 148.51,-352.68 130.51,-343.97 115.02,-335.75"/>
<polygon fill="black" stroke="black" points="117.03,-332.86 106.57,-331.18 113.69,-339.02 117.03,-332.86"/>
</g>
<!-- module.vpc.aws_route_table.rtb -->
<g id="node11" class="node">
<title>module.vpc.aws_route_table.rtb</title>
<polygon fill="none" stroke="black" points="606.19,-394 479.4,-394 479.4,-358 606.19,-358 606.19,-394"/>
<text text-anchor="middle" x="542.79" y="-371.8" font-family="sans-serif" font-size="14.00">aws_route_table.rtb</text>
</g>
<!-- module.vpc.aws_route_table.rtb&#45;&gt;module.vpc.aws_internet_gateway.igw -->
<g id="edge14" class="edge">
<title>module.vpc.aws_route_table.rtb-&gt;module.vpc.aws_internet_gateway.igw</title>
<path fill="none" stroke="black" d="M479.17,-378.4C447.54,-379.6 408.53,-381.1 373.47,-382.44"/>
<polygon fill="black" stroke="black" points="373.61,-378.93 363.75,-382.81 373.88,-385.92 373.61,-378.93"/>
</g>
<!-- module.vpc.aws_route_table_association.rta -->
<g id="node12" class="node">
<title>module.vpc.aws_route_table_association.rta</title>
<polygon fill="none" stroke="black" points="887.75,-362 692.53,-362 692.53,-326 887.75,-326 887.75,-362"/>
<text text-anchor="middle" x="790.14" y="-339.8" font-family="sans-serif" font-size="14.00">aws_route_table_association.rta</text>
</g>
<!-- module.vpc.aws_route_table_association.rta&#45;&gt;module.vpc.aws_route_table.rtb -->
<g id="edge15" class="edge">
<title>module.vpc.aws_route_table_association.rta-&gt;module.vpc.aws_route_table.rtb</title>
<path fill="none" stroke="black" d="M692.17,-356.65C667.42,-359.88 641.22,-363.29 617.82,-366.34"/>
<polygon fill="black" stroke="black" points="617.55,-362.85 608.08,-367.61 618.45,-369.79 617.55,-362.85"/>
</g>
<!-- module.vpc.aws_route_table_association.rta&#45;&gt;module.vpc.aws_subnet.my_subnets -->
<g id="edge16" class="edge">
<title>module.vpc.aws_route_table_association.rta-&gt;module.vpc.aws_subnet.my_subnets</title>
<path fill="none" stroke="black" d="M692.17,-331.35C671.7,-328.68 650.23,-325.88 630.17,-323.27"/>
<polygon fill="black" stroke="black" points="630.74,-319.81 620.38,-321.99 629.84,-326.75 630.74,-319.81"/>
</g>
<!-- module.vpc.aws_subnet.my_subnets&#45;&gt;module.vpc.data.aws_availability_zones.available -->
<g id="edge17" class="edge">
<title>module.vpc.aws_subnet.my_subnets-&gt;module.vpc.data.aws_availability_zones.available</title>
<path fill="none" stroke="black" d="M466.52,-317.76C447.21,-319.24 425.92,-320.86 404.84,-322.48"/>
<polygon fill="black" stroke="black" points="404.72,-318.97 395.02,-323.23 405.26,-325.95 404.72,-318.97"/>
</g>
<!-- module.vpc.aws_subnet.my_subnets&#45;&gt;module.vpc.aws_vpc.my_vpc -->
<g id="edge18" class="edge">
<title>module.vpc.aws_subnet.my_subnets-&gt;module.vpc.aws_vpc.my_vpc</title>
<path fill="none" stroke="black" d="M466.54,-307.77C443.01,-306.63 416.96,-305.56 393.06,-305 291.99,-302.62 266.61,-301.15 165.59,-305 157.77,-305.3 149.59,-305.74 141.47,-306.25"/>
<polygon fill="black" stroke="black" points="141.32,-302.76 131.58,-306.93 141.79,-309.74 141.32,-302.76"/>
</g>
</g>
</svg>